<svg xmlns="http://www.w3.org/2000/svg" xmlns:xlink="http://www.w3.org/1999/xlink" width="300" height="300" viewBox="0 0 300 300">
	<svg xmlns="http://www.w3.org/2000/svg" width="61.801" height="61.801" viewBox="0 0 61.801 61.801" id="usd1">
	  <path d="M32.9,2A30.9,30.9,0,1,0,63.8,32.9,30.912,30.912,0,0,0,32.9,2Zm4.357,49.719v5.9h-8.25V51.657c-5.284-1.112-9.765-4.511-10.1-10.506h6.056c.309,3.245,2.534,5.778,8.189,5.778,6.056,0,7.416-3.028,7.416-4.913,0-2.565-1.36-4.975-8.25-6.613C24.65,33.549,19.4,30.4,19.4,24.063c0-5.315,4.3-8.776,9.61-9.919V8.18h8.25v6.026a10.924,10.924,0,0,1,8.807,10.475H40.008c-.154-3.43-1.978-5.778-6.86-5.778-4.635,0-7.416,2.1-7.416,5.068,0,2.6,2.009,4.3,8.25,5.9S46.9,34.167,46.9,41.954c-.031,5.655-4.264,8.745-9.641,9.765Z" transform="translate(-2 -2)" fill="#232323"/>
	</svg>

	<svg xmlns="http://www.w3.org/2000/svg" width="53.094" height="53.73" viewBox="0 0 53.094 53.73" y="62" id="cart">
  		<path d="M27.336,21.468H32.6V13.793h7.9V8.676H32.6V1H27.336V8.676h-7.9v5.117h7.9ZM16.8,44.5a5.119,5.119,0,1,0,5.267,5.117A5.186,5.186,0,0,0,16.8,44.5Zm26.336,0a5.119,5.119,0,1,0,5.267,5.117A5.186,5.186,0,0,0,43.138,44.5ZM17.25,36.18l.079-.307L19.7,31.7H39.319a5.268,5.268,0,0,0,4.609-2.635L54.094,11.132,49.512,8.676h-.026l-2.9,5.117L39.319,26.586H20.831l-.342-.691-5.9-12.1-2.5-5.117L9.612,3.559H1V8.676H6.267L15.748,28.1l-3.555,6.268a4.838,4.838,0,0,0-.658,2.456A5.209,5.209,0,0,0,16.8,41.937h31.6V36.82h-30.5A.66.66,0,0,1,17.25,36.18Z" transform="translate(-1 -1)" fill="#fff"/>
	</svg>

	<svg xmlns="http://www.w3.org/2000/svg" width="70.517" height="56.414" viewBox="0 0 70.517 56.414" y="116" id="usd2">
	  <path d="M33.733,49.836h7.052V46.31H44.31a3.536,3.536,0,0,0,3.526-3.526V32.207a3.536,3.536,0,0,0-3.526-3.526H33.733V25.155h14.1V18.1H40.785V14.578H33.733V18.1H30.207a3.536,3.536,0,0,0-3.526,3.526V32.207a3.536,3.536,0,0,0,3.526,3.526H40.785v3.526h-14.1V46.31h7.052ZM65.466,4H9.052a7,7,0,0,0-7.016,7.052L2,53.362a7.027,7.027,0,0,0,7.052,7.052H65.466a7.027,7.027,0,0,0,7.052-7.052V11.052A7.027,7.027,0,0,0,65.466,4Zm0,49.362H9.052V11.052H65.466Z" transform="translate(-2 -4)" fill="#232323"/>
	</svg>

	<svg xmlns="http://www.w3.org/2000/svg" width="60.473" height="60.473" viewBox="0 0 60.473 60.473" y="177" id="refresh">
  		<path d="M32.236,2A30.236,30.236,0,1,0,62.473,32.236,30.247,30.247,0,0,0,32.236,2Zm.181,51.4V47.324h-.181A15.108,15.108,0,0,1,19.6,23.891l3.326,3.326A10.57,10.57,0,0,0,24.708,39.7a10.459,10.459,0,0,0,7.68,3.054V36.288l8.557,8.557Zm12.427-12.82-3.326-3.326a10.555,10.555,0,0,0-9.283-15.6h-.181v6.5L23.5,19.628l8.557-8.557v6.108A14.893,14.893,0,0,1,42.94,21.563,15.168,15.168,0,0,1,44.845,40.582Z" transform="translate(-2 -2)" fill="#232323"/>
	</svg>

	<svg xmlns="http://www.w3.org/2000/svg" width="27.661" height="27.661" viewBox="0 0 27.661 27.661" y="238" id="more">
	  <path d="M0,0H27.661V27.661H0Z" fill="none"/>
	  <path d="M14.678,7.763H12.373v4.61H7.763v2.305h4.61v4.61h2.305v-4.61h4.61V12.373h-4.61ZM13.525,2A11.525,11.525,0,1,0,25.051,13.525,11.53,11.53,0,0,0,13.525,2Zm0,20.746a9.22,9.22,0,1,1,9.22-9.22A9.233,9.233,0,0,1,13.525,22.746Z" transform="translate(0.305 0.305)" fill="#232323"/>
	</svg>

	<svg xmlns="http://www.w3.org/2000/svg" width="16" height="16" viewBox="0 0 16 16" y="266">
	  <path d="M9.992,2A8,8,0,1,0,18,10,8,8,0,0,0,9.992,2ZM10,16.4A6.4,6.4,0,1,1,16.4,10,6.4,6.4,0,0,1,10,16.4Z" transform="translate(-2 -2)" fill="#232323"/>
	  <path d="M12.5,7H11v6l5.25,3.15L17,14.92l-4.5-2.67Z" transform="translate(-4.444 -3.886)" fill="#232323"/>
	</svg>
</svg>